:SAMPLES-PER-SECOND 30
:FULLY-SPECIFIED
:DEGREES
92
root  -36.4245 39.6247 -3.90095 -7.14308 -48.8363 11.8534
RightUpLeg  -24.4304 -4.65281 -17.8422
RightLeg  20.7535 8.69048 3.39994
RightFoot  3.27852 -0.935888 7.45992
RightToes  0.00048216 0.542163 -0.142577
Spine  33.3227 -2.44033 21.2529
Spine1  10.7414 4.02925 -0.00367486
HEad  -9.57864 -36.6021 4.11055
LeftShoulder1  8.81752 -13.9328 -44.0247
LeftArm  -15.5369 17.9006 -27.1475
LeftForeArm  47.0251 -59.4749 -14.7361
LeftHand  -0.25398 0.0180481 5.50724
RightShoulder  5.17968 10.1688 31.9387
RightArm  -32.1965 31.9696 2.11496
RightForeArm  -12.6905 25.9371 6.18942
RightHand  -10.261 25.1057 -37.9758
LeftUpLeg  -22.3044 -10.9366 -7.09639
LeftLeg  19.6962 -10.2281 -3.72232
LeftFoot  3.03346 -0.0688979 0.401363
LeftToes  1.06246e-005 4.65856e-005 -8.18502e-006
93
root  -36.769 39.7579 -4.45133 -6.05475 -45.9378 11.7784
RightUpLeg  -24.484 -6.91648 -17.3054
RightLeg  20.707 7.50049 2.88043
RightFoot  3.28859 -0.812123 6.49547
RightToes  0.00048216 0.542163 -0.142577
Spine  33.1451 -2.59341 21.4866
Spine1  10.297 3.77527 0.233422
HEad  -9.63453 -36.9999 3.85442
LeftShoulder1  8.74153 -13.9131 -43.6766
LeftArm  -14.803 19.1206 -27.8005
LeftForeArm  47.8996 -58.552 -14.0503
LeftHand  -0.25398 0.0180481 5.50724
RightShoulder  5.35977 10.2848 32.9281
RightArm  -34.8028 30.2068 1.5412
RightForeArm  -13.7129 29.052 7.00438
RightHand  -11.3873 26.3656 -40.2443
LeftUpLeg  -22.2147 -9.90776 -7.31386
LeftLeg  18.2684 -8.92833 -2.95814
LeftFoot  2.96065 0.163439 -1.4555
LeftToes  1.06246e-005 4.65856e-005 -8.18502e-006
94
root  -37.0861 39.9211 -4.95007 -5.2534 -43.0126 11.764
RightUpLeg  -24.2047 -8.59443 -17.0319
RightLeg  20.3235 6.47398 2.38331
RightFoot  3.47849 -0.694608 5.52022
RightToes  0.00048216 0.542163 -0.142577
Spine  32.6755 -2.72213 21.5256
Spine1  9.96194 3.60876 -0.0217159
HEad  -9.3265 -36.8572 3.811
LeftShoulder1  8.61308 -13.8908 -43.056
LeftArm  -13.9047 20.0735 -28.6105
LeftForeArm  48.5803 -56.977 -13.0405
LeftHand  -0.25398 0.0180481 5.50724
RightShoulder  5.46055 10.2722 33.6921
RightArm  -37.3683 27.6305 2.34896
RightForeArm  -13.4431 32.7807 7.97376
RightHand  -11.1842 26.0281 -39.9616
LeftUpLeg  -21.5628 -7.26561 -8.2244
LeftLeg  17.863 -6.70359 -2.08694
LeftFoot  1.53325 0.236321 -2.16831
LeftToes  1.06246e-005 4.65856e-005 -8.18502e-006
95
root  -37.3893 40.0954 -5.39337 -4.72322 -39.8338 11.7362
RightUpLeg  -23.3441 -11.3418 -16.7188
RightLeg  19.5555 6.23036 2.16859
RightFoot  3.78421 -0.620942 4.8679
RightToes  0.00048216 0.542163 -0.142577
Spine  31.9099 -2.6637 21.1815
Spine1  9.67529 3.37471 0.0774163
HEad  -9.17173 -36.4897 4.13509
LeftShoulder1  8.57826 -13.8259 -43.0419
LeftArm  -12.7284 20.5883 -29.0089
LeftForeArm  48.7901 -54.8244 -11.8612
LeftHand  -0.25398 0.0180481 5.50724
RightShoulder  5.42075 10.073 33.9777
RightArm  -38.9961 23.9839 4.15524
RightForeArm  -11.8237 37.7866 9.37414
RightHand  -10.3725 24.9179 -38.5747
LeftUpLeg  -20.2478 -3.30015 -9.44727
LeftLeg  18.2341 -5.09227 -1.54793
LeftFoot  -0.817196 0.209571 -2.22497
LeftToes  1.06246e-005 4.65856e-005 -8.18502e-006
96
root  -37.6806 40.2659 -5.7931 -4.04449 -36.1355 11.438
RightUpLeg  -22.0819 -14.9035 -16.3598
RightLeg  18.5552 5.89378 2
RightFoot  3.97165 -0.56731 4.41925
RightToes  0.00048216 0.542163 -0.142577
Spine  30.6945 -2.46241 20.7063
Spine1  9.26424 2.98613 0.704358
HEad  -8.87234 -36.1165 4.06885
LeftShoulder1  8.65026 -13.7543 -43.6152
LeftArm  -11.4115 20.9031 -29.0666
LeftForeArm  48.3411 -52.3997 -10.7344
LeftHand  -0.25398 0.0180481 5.50724
RightShoulder  5.33989 9.8097 34.1592
RightArm  -38.9043 19.125 6.0374
RightForeArm  -8.65099 44.3469 11.5231
RightHand  -9.69163 23.864 -37.46
LeftUpLeg  -18.5567 1.09248 -10.2662
LeftLeg  18.5766 -4.26315 -1.27239
LeftFoot  -2.79928 0.216844 -2.68503
LeftToes  1.06246e-005 4.65856e-005 -8.18502e-006
97
root  -37.9574 40.4328 -6.16408 -3.0973 -31.9919 10.9062
RightUpLeg  -20.6988 -17.7392 -16.2488
RightLeg  17.4558 4.52502 1.73914
RightFoot  4.1273 -0.499055 3.88097
RightToes  0.00048216 0.542163 -0.142577
Spine  29.1034 -2.24036 20.2383
Spine1  8.71462 2.5668 1.29081
HEad  -8.31586 -35.51 3.17419
LeftShoulder1  8.68159 -13.6907 -43.9526
LeftArm  -10.3629 21.4136 -29.3452
LeftForeArm  47.3385 -50.2055 -9.8657
LeftHand  -0.25398 0.0180481 5.50724
RightShoulder  5.32816 9.63585 34.5952
RightArm  -37.1635 13.1886 7.60741
RightForeArm  -3.12607 51.9985 14.7211
RightHand  -8.94781 22.6244 -36.2297
LeftUpLeg  -16.859 5.32129 -10.3672
LeftLeg  18.5773 -3.29631 -0.910605
LeftFoot  -3.80446 0.255325 -3.52286
LeftToes  1.06246e-005 4.65856e-005 -8.18502e-006
